<svg id="圖層_1" data-name="圖層 1" xmlns="http://www.w3.org/2000/svg" viewBox="0 0 1414.78 368.3"><defs><style>.cls-1 {
  fill: none;
  stroke: #fff;
  stroke-width: 6px;
}

.cls-2 {
  font-family: FranklinGothic-Medium, Franklin Gothic Medium;
  font-size: 60px;
  font-weight: 500;
}

.cls-2, .cls-3, .cls-4 {
  fill: #fff;
}

.cls-3 {
  font-family: MicrosoftJhengHeiBold, Microsoft JhengHei;
  font-size: 48px;
}

.cls-5 {
  letter-spacing: .02em;
}

</style></defs><title>keyControls</title><rect class="cls-1" x="122.22" y="3" width="99.22" height="99.22" rx="17.01"></rect><text class="cls-2" transform="translate(145.33 72.42)">W</text><rect class="cls-1" x="3" y="122.22" width="99.22" height="99.22" rx="17.01"></rect><text class="cls-2" transform="translate(34.52 191.65)">A</text><rect class="cls-1" x="122.22" y="122.22" width="99.22" height="99.22" rx="17.01"></rect><text class="cls-2" transform="translate(154.69 191.65)">S</text><rect class="cls-1" x="241.44" y="122.22" width="99.22" height="99.22" rx="17.01"></rect><text class="cls-2" transform="translate(271.41 191.65)">D</text><text class="cls-3" transform="translate(75.83 296.49)">基本移動</text><path class="cls-4" d="M1413,329c0,6.53-1.82,9.31-7.88,11.56-4.31,1.62-8.65,3.13-12.93,4.83a9.64,9.64,0,0,1-8.5-.17c-4.6-2.55-9.09-5.32-13.49-8.2-2.93-1.92-5.66-4.16-8.42-6.35a4.19,4.19,0,0,1-1.36-5.56c1.05-1.91,3-2.67,5.42-1.65s4.87,2.61,7.37,3.77a8.53,8.53,0,0,0,2.76.28c0-.93.37-2,0-2.76q-6.17-11.62-12.52-23.16c-2-3.52-1.93-5.72.35-7s4.27-.31,6.26,3.15c2.71,4.72,5.37,9.47,8.2,14.12.58,1,2.21,2.37,2.66,2.15,2-1,.39-2.44-.08-3.58-2.74-6.47-5.6-12.89-8.41-19.34-1.31-3-.82-5.29,1.35-6.26s4.33.13,5.71,3.32c3.06,7.07,6.08,14.15,9.2,21.19.33.74,1.25,1.22,1.9,1.83.13-.9.58-1.89.34-2.67-1.91-6.34-4-12.61-5.93-18.92-.94-3-.15-5.16,2.06-5.85,2.43-.76,4.24.47,5.25,3.62q2.92,9.06,5.82,18.16a4.71,4.71,0,0,0,.5,1.42,9.66,9.66,0,0,0,1.51,1.28c.27-.68.89-1.43.76-2-1-4.82-2.23-9.62-3.37-14.42-.15-.56-.28-1.13-.38-1.71-.35-2.51.79-4.29,3-4.73a3.89,3.89,0,0,1,4.45,3.16c.86,3.49,1.63,7,2.39,10.52q2.77,12.76,5.5,25.52A41.84,41.84,0,0,1,1413,329Z"></path><path class="cls-4" d="M1401.89,278.49a2,2,0,0,1,2.41-1.38h0a14.79,14.79,0,0,1,10.41,10.46,2,2,0,0,1-3.8,1,10.85,10.85,0,0,0-7.62-7.66,2,2,0,0,1-1.41-2.4Z"></path><path class="cls-4" d="M1359.26,334.56a25.32,25.32,0,0,1-5.84-9.53,2,2,0,0,0-3.73,1.29h0a29.15,29.15,0,0,0,6.75,11,2,2,0,1,0,2.82-2.74h0Z"></path><path class="cls-4" d="M1413.13,45.93a28.35,28.35,0,0,0-25.54-25.39c-.14,0-.28-.09-.43-.13h-4.44l-.59.14a28.22,28.22,0,0,0-15.87,6.87l-.35.32-.08.07a28,28,0,0,0-6,7.7l-.21.4-.09.18c-.11.21-.22.44-.32.67h0a28,28,0,0,0-2.64,10.94v.11c0,.24,0,.47,0,.7v.24c0,.25,0,.49,0,.74s0,.2,0,.31,0,.33,0,.49,0,.25,0,.38,0,.29,0,.43,0,.25,0,.37,0,.32,0,.48,0,.21,0,.31c.07.56.15,1.1.25,1.65a.13.13,0,0,0,0,.06c0,.28.11.55.17.82v0a28.32,28.32,0,0,0,8.33,14.64.85.85,0,0,1,0,1,27.33,27.33,0,0,1-5.26,7.64,2.62,2.62,0,0,0-.69,3.08,2.67,2.67,0,0,0,2.79,1.61A25.36,25.36,0,0,0,1378.31,77a1.85,1.85,0,0,1,1.34-.39,28.62,28.62,0,0,0,9.55.16l.15,0,.46-.07.35-.07.24,0,.52-.11h0A28.37,28.37,0,0,0,1413.1,52c.05-.33.11-.65.17-1V46.7C1413.22,46.44,1413.18,46.19,1413.13,45.93Zm-17.65-.57c-3.6,3.78-7.18,7.57-10.79,11.34a2.85,2.85,0,0,1-4.31.19c-1.72-1.52-3.44-3-5.09-4.62a2.83,2.83,0,0,1-.31-4.21c1.19-1.25,2.86-1.2,4.32.13.7.64,1.46,1.22,2.09,1.92s1.16.57,1.79-.11c2.64-2.84,5.33-5.62,8-8.43a3.07,3.07,0,0,1,2.39-1.12,2.87,2.87,0,0,1,2.82,2.91A2.93,2.93,0,0,1,1395.48,45.36Z"></path><path class="cls-4" d="M1413.13,177.46a28.34,28.34,0,0,0-25.54-25.38l-.43-.13h-4.44l-.59.14a28.16,28.16,0,0,0-15.87,6.87l-.35.32-.08.07a28,28,0,0,0-6,7.7l-.21.4-.09.18c-.11.21-.22.44-.32.66h0a28.09,28.09,0,0,0-2.64,10.95v.11c0,.24,0,.47,0,.7v.24c0,.25,0,.49,0,.74,0,.1,0,.2,0,.31s0,.32,0,.49,0,.25,0,.38,0,.28,0,.43,0,.25,0,.37,0,.32,0,.48,0,.21,0,.31c.07.55.15,1.1.25,1.64a.15.15,0,0,0,0,.07c0,.27.11.54.17.82v0a28.32,28.32,0,0,0,8.33,14.64.85.85,0,0,1,0,1,27.33,27.33,0,0,1-5.26,7.64,2.61,2.61,0,0,0-.69,3.07,2.66,2.66,0,0,0,2.79,1.62,25.31,25.31,0,0,0,15.86-5.8,2,2,0,0,1,1.34-.39,28.35,28.35,0,0,0,9.55.16l.15,0,.46-.08.35-.06.24,0,.52-.1h0a28.37,28.37,0,0,0,22.14-24.52c.05-.32.11-.65.17-1v-4.27C1413.22,178,1413.18,177.72,1413.13,177.46ZM1389.08,181c1.2,1.14,2.35,2.33,3.5,3.52a2.56,2.56,0,0,1,.1,3.78A2.51,2.51,0,0,1,1389,188c-1.12-1.12-2.26-2.23-3.33-3.4-.54-.58-.89-.66-1.47,0-1.06,1.18-2.2,2.29-3.32,3.41a2.57,2.57,0,0,1-3.77.26,2.61,2.61,0,0,1,.16-3.79c1.14-1.18,2.25-2.34,3.43-3.45.55-.52.61-.85,0-1.39-1.18-1.11-2.31-2.29-3.43-3.46a2.54,2.54,0,1,1,3.58-3.55c1.1,1.09,2.23,2.16,3.26,3.32.64.73,1,.61,1.61,0,1.11-1.23,2.3-2.39,3.48-3.54a2.36,2.36,0,0,1,2.78-.48,2.48,2.48,0,0,1,1.45,2.55,2.71,2.71,0,0,1-.93,1.78c-1.14,1.15-2.26,2.32-3.43,3.45C1388.59,180.14,1388.55,180.46,1389.08,181Z"></path><rect class="cls-1" x="515" y="3" width="212.28" height="99.22" rx="17.01"></rect><text class="cls-2" transform="translate(560.69 72.42)">Shi<tspan class="cls-5" x="81.47" y="0">f</tspan><tspan x="101.57" y="0">t</tspan></text><text class="cls-3" transform="translate(770.37 71.7)">切換速度</text><rect class="cls-1" x="515" y="134.54" width="212.28" height="99.22" rx="17.01"></rect><text class="cls-2" transform="translate(541.92 203.96)">Space</text><text class="cls-3" transform="translate(770.37 203.24)">跳躍</text><rect class="cls-1" x="515" y="266.07" width="99.22" height="99.22" rx="17.01"></rect><text class="cls-2" transform="translate(548.4 335.5)">V</text><text class="cls-3" transform="translate(657.31 334.78)">切換視角</text><rect class="cls-1" x="1104.1" y="3" width="99.22" height="99.22" rx="17.01"></rect><text class="cls-2" transform="translate(1135.62 72.42)">1</text><text class="cls-3" transform="translate(1246.41 70.7)">點頭</text><rect class="cls-1" x="1104.1" y="134.54" width="99.22" height="99.22" rx="17.01"></rect><text class="cls-2" transform="translate(1136.57 203.96)">2</text><text class="cls-3" transform="translate(1246.41 202.24)">搖頭</text><rect class="cls-1" x="1104.1" y="266.07" width="99.22" height="99.22" rx="17.01"></rect><text class="cls-2" transform="translate(1134.07 335.5)">3</text><text class="cls-3" transform="translate(1246.41 333.78)">揮手</text></svg>